<svg width="27" height="28" viewBox="0 0 27 28" fill="none" xmlns="http://www.w3.org/2000/svg">
<path d="M20 9.55557C20 7.78746 19.2976 6.09177 18.0473 4.84153C16.7971 3.59129 15.1014 2.88892 13.3333 2.88892C11.5652 2.88892 9.86951 3.59129 8.61927 4.84153C7.36903 6.09177 6.66666 7.78746 6.66666 9.55557C6.66666 17.3333 3.33333 19.5556 3.33333 19.5556H23.3333C23.3333 19.5556 20 17.3333 20 9.55557Z" stroke="#012622" stroke-width="2" stroke-linecap="round" stroke-linejoin="round"/>
<path d="M15.2555 24C15.0602 24.3368 14.7798 24.6163 14.4424 24.8106C14.1051 25.0049 13.7226 25.1072 13.3333 25.1072C12.944 25.1072 12.5615 25.0049 12.2242 24.8106C11.8868 24.6163 11.6064 24.3368 11.4111 24" stroke="#012622" stroke-width="2" stroke-linecap="round" stroke-linejoin="round"/>
</svg>
