<svg width="33" height="33" viewBox="0 0 33 33" fill="none" xmlns="http://www.w3.org/2000/svg">
<rect width="32.6141" height="32.6141" rx="6" fill="white"/>
<rect x="0.5" y="0.5" width="31.6141" height="31.6141" rx="5.5" stroke="#A1A1A1" stroke-opacity="0.3"/>
<path d="M19.7139 18.7612C19.8383 18.7612 19.9573 18.8124 20.0439 18.9028C20.1304 18.9931 20.1786 19.1149 20.1787 19.2407C20.1787 19.3666 20.1303 19.4883 20.0439 19.5786C19.9573 19.6691 19.8384 19.7212 19.7139 19.7212H11.7432C11.6187 19.7212 11.4997 19.6691 11.4131 19.5786C11.3268 19.4883 11.2793 19.3666 11.2793 19.2407C11.2794 19.1149 11.3267 18.9931 11.4131 18.9028C11.4997 18.8123 11.6187 18.7612 11.7432 18.7612H19.7139Z" fill="#262626" stroke="#262626" stroke-width="0.2"/>
<path d="M20.0098 9.87744L20.1777 9.88721C20.3445 9.90805 20.507 9.95956 20.6572 10.0396C20.8074 10.1196 20.9421 10.2268 21.0557 10.355L21.1621 10.4907L22.7432 12.7749L25.1494 13.1392C25.8077 13.2391 26.4089 13.5838 26.8428 14.1079C27.2765 14.632 27.5141 15.3013 27.5137 15.9927V18.4409L27.5078 18.5669C27.4798 18.8589 27.3556 19.1339 27.1543 19.3442C26.9242 19.5845 26.6115 19.7207 26.2842 19.7212H24.3115C24.1871 19.7212 24.0681 19.67 23.9814 19.5796C23.8949 19.4892 23.8467 19.3667 23.8467 19.2407C23.8468 19.1149 23.895 18.9931 23.9814 18.9028C24.0681 18.8124 24.1871 18.7612 24.3115 18.7612H26.2832C26.3619 18.7611 26.439 18.728 26.4961 18.6685C26.5531 18.6088 26.5858 18.527 26.5859 18.4409V15.9927L26.5781 15.8198C26.5421 15.4201 26.3874 15.0408 26.1348 14.7358C25.8461 14.3874 25.4481 14.1593 25.0137 14.0913V14.0903L22.4141 13.6978C22.3521 13.6882 22.2924 13.6659 22.2393 13.6323C22.2127 13.6155 22.1886 13.5954 22.166 13.5737L22.1045 13.5024L20.4072 11.0522V11.0513C20.3611 10.9851 20.3004 10.9318 20.2314 10.895C20.1968 10.8766 20.1605 10.8624 20.123 10.853L20.0088 10.8384H15.4316C15.3206 10.8378 15.2117 10.8773 15.124 10.9507C15.0364 11.0241 14.9745 11.1273 14.9502 11.2437V11.2446L14.3594 14.0181C14.3371 14.1239 14.2804 14.2195 14.1982 14.2886C14.116 14.3576 14.0131 14.3959 13.9062 14.396H5.41406V18.4409C5.41422 18.527 5.44687 18.6088 5.50391 18.6685C5.56085 18.728 5.63723 18.761 5.71582 18.7612H7.14551C7.26994 18.7612 7.38895 18.8124 7.47559 18.9028C7.56199 18.9931 7.61024 19.1149 7.61035 19.2407C7.61035 19.3667 7.56209 19.4892 7.47559 19.5796C7.38895 19.67 7.26992 19.7212 7.14551 19.7212H5.71582C5.3883 19.7207 5.0749 19.5847 4.84473 19.3442C4.61478 19.1039 4.4867 18.7789 4.48633 18.4409V13.9146C4.48636 13.7887 4.5337 13.667 4.62012 13.5767C4.70676 13.4862 4.82569 13.4341 4.9502 13.4341H13.5332L14.0439 11.0366L14.0742 10.9155C14.1569 10.636 14.3191 10.3867 14.54 10.2017C14.7924 9.9905 15.107 9.87694 15.4316 9.87842V9.87744H20.0098Z" fill="#262626" stroke="#262626" stroke-width="0.2"/>
<path d="M8.90527 16.415C9.44183 16.3037 9.9978 16.3615 10.5029 16.5801C11.008 16.7986 11.4392 17.1681 11.7422 17.6416C12.0452 18.1152 12.207 18.6724 12.207 19.2412C12.2061 20.0035 11.9157 20.7351 11.3984 21.2754C10.881 21.8159 10.1781 22.1212 9.44434 22.1221C8.89707 22.122 8.36251 21.9518 7.9082 21.6348C7.45396 21.3177 7.10014 20.8677 6.8916 20.3418C6.68313 19.816 6.62912 19.2376 6.73535 18.6797C6.8416 18.1217 7.10337 17.6082 7.48926 17.2051C7.87528 16.8019 8.36858 16.5265 8.90527 16.415ZM21.4727 16.415C22.0094 16.3035 22.566 16.3615 23.0713 16.5801C23.5764 16.7986 24.0076 17.1681 24.3105 17.6416C24.6135 18.1152 24.7754 18.6724 24.7754 19.2412C24.7745 20.0035 24.484 20.7351 23.9668 21.2754C23.4493 21.8159 22.7465 22.1212 22.0127 22.1221C21.4654 22.1221 20.9309 21.9519 20.4766 21.6348C20.0223 21.3177 19.6685 20.8677 19.46 20.3418C19.2515 19.816 19.1965 19.2376 19.3027 18.6797C19.409 18.1217 19.6717 17.6082 20.0576 17.2051C20.4436 16.8019 20.936 16.5266 21.4727 16.415ZM9.44434 17.3203C9.0826 17.3204 8.72827 17.4321 8.42676 17.6426C8.12519 17.8531 7.88935 18.1535 7.75 18.5049C7.6108 18.8562 7.57446 19.243 7.64551 19.6162C7.71661 19.9896 7.89252 20.3323 8.14941 20.6006C8.40622 20.8687 8.73304 21.0513 9.08789 21.125C9.44272 21.1986 9.81099 21.1604 10.1455 21.0156C10.48 20.8708 10.7667 20.6253 10.9688 20.3096C11.1708 19.9937 11.2792 19.6219 11.2793 19.2412C11.2787 18.7306 11.0837 18.2416 10.7393 17.8818C10.395 17.5223 9.9292 17.3209 9.44434 17.3203ZM21.8779 17.3252C21.5635 17.3494 21.2591 17.4583 20.9951 17.6426C20.6935 17.8531 20.4577 18.1534 20.3184 18.5049C20.1791 18.8562 20.1428 19.243 20.2139 19.6162C20.285 19.9896 20.4599 20.3323 20.7168 20.6006C20.9736 20.8688 21.3004 21.0512 21.6553 21.125C22.0101 21.1987 22.3783 21.1603 22.7129 21.0156C23.0476 20.8708 23.335 20.6255 23.5371 20.3096C23.7391 19.9937 23.8466 19.6218 23.8467 19.2412C23.8462 18.7306 23.6521 18.2416 23.3076 17.8818C22.9634 17.5223 22.4976 17.3209 22.0127 17.3203L21.8779 17.3252ZM6.50977 15.0205C6.63427 15.0205 6.7532 15.0716 6.83984 15.1621C6.92626 15.2524 6.97355 15.3741 6.97363 15.5C6.97298 16.0579 6.76074 16.5945 6.38184 16.9902C6.00285 17.386 5.48803 17.6096 4.9502 17.6104C4.82569 17.6104 4.70677 17.5583 4.62012 17.4678C4.5337 17.3774 4.48635 17.2558 4.48633 17.1299V15.5C4.48641 15.3741 4.53369 15.2524 4.62012 15.1621C4.70676 15.0716 4.8257 15.0205 4.9502 15.0205H6.50977ZM5.41406 16.5391C5.52779 16.4829 5.63283 16.4082 5.72266 16.3145C5.81519 16.2178 5.89067 16.1044 5.94531 15.9805H5.41406V16.5391ZM22.5439 12.7461C22.6672 12.7629 22.7782 12.8297 22.8525 12.9307C22.9268 13.0316 22.959 13.1592 22.9434 13.2842C22.9276 13.409 22.8649 13.5234 22.7676 13.6016L21.9053 14.2939L21.9043 14.293C21.8234 14.3579 21.7243 14.3944 21.6211 14.3945H13.9062C13.7817 14.3945 13.6628 14.3425 13.5762 14.252C13.4898 14.1616 13.4424 14.0399 13.4424 13.9141C13.4424 13.7882 13.4897 13.6665 13.5762 13.5762C13.6628 13.4857 13.7818 13.4346 13.9062 13.4346H21.4619L22.1982 12.8428C22.2958 12.7644 22.4205 12.7293 22.5439 12.7461Z" fill="#262626" stroke="#262626" stroke-width="0.2"/>
<path d="M24.7075 13.1587C24.819 13.1065 24.9463 13.1017 25.061 13.146C25.1755 13.1903 25.2677 13.2792 25.3188 13.3921C25.3699 13.5049 25.3763 13.6338 25.3374 13.7515L25.3364 13.7534C25.2801 13.9136 25.2512 14.0835 25.2515 14.2544C25.2515 15.1207 26 15.8354 26.9312 15.8354C26.9658 15.8354 26.9948 15.8349 27.0239 15.8325H27.0269L27.1187 15.8374C27.2096 15.8513 27.2953 15.8921 27.3638 15.9565C27.4549 16.0423 27.5088 16.1617 27.5151 16.2876C27.5214 16.4133 27.4795 16.5375 27.3979 16.6323C27.316 16.7273 27.2 16.7856 27.0757 16.7925H27.0728C27.027 16.7938 26.9781 16.7954 26.9302 16.7954C25.4951 16.7954 24.3228 15.6583 24.3228 14.2544C24.3227 13.9709 24.371 13.6893 24.4653 13.4233L24.4663 13.4214C24.51 13.3054 24.5963 13.2108 24.7075 13.1587ZM18.979 15.0347C19.1034 15.0347 19.2215 15.0868 19.3081 15.1772C19.3946 15.2676 19.4429 15.3892 19.4429 15.5151C19.4428 15.6411 19.3946 15.7627 19.3081 15.853C19.2215 15.9434 19.1033 15.9955 18.979 15.9956H17.6382C17.5137 15.9956 17.3948 15.9435 17.3081 15.853C17.2217 15.7627 17.1744 15.641 17.1743 15.5151C17.1743 15.3893 17.2217 15.2676 17.3081 15.1772C17.3948 15.0867 17.5137 15.0347 17.6382 15.0347H18.979ZM17.6382 9.87842C17.7625 9.87849 17.8807 9.92973 17.9673 10.02C18.0537 10.1103 18.102 10.232 18.1021 10.3579V13.9165C18.1016 14.0421 18.0537 14.1635 17.9673 14.2534C17.8807 14.3435 17.7623 14.3949 17.6382 14.395C17.5137 14.395 17.3948 14.3429 17.3081 14.2524C17.2217 14.1621 17.1743 14.0405 17.1743 13.9146V10.3579C17.1744 10.232 17.2217 10.1103 17.3081 10.02C17.3948 9.92952 17.5137 9.87842 17.6382 9.87842Z" fill="#262626" stroke="#262626" stroke-width="0.2"/>
</svg>
