<svg width="30" height="30" viewBox="0 0 30 30" fill="none" xmlns="http://www.w3.org/2000/svg">
<path d="M9.84375 15C9.84375 16.0355 10.6832 16.875 11.7188 16.875C12.7543 16.875 13.5938 16.0355 13.5938 15C13.5938 13.9645 12.7543 13.125 11.7188 13.125C10.6832 13.125 9.84375 13.9645 9.84375 15Z" fill="#717680"/>
<path d="M9.84375 21.3281C9.84375 22.3637 10.6832 23.2031 11.7188 23.2031C12.7543 23.2031 13.5938 22.3637 13.5938 21.3281C13.5938 20.2926 12.7543 19.4531 11.7188 19.4531C10.6832 19.4531 9.84375 20.2926 9.84375 21.3281Z" fill="#717680"/>
<path d="M9.84375 8.67188C9.84375 9.70741 10.6832 10.5469 11.7188 10.5469C12.7543 10.5469 13.5938 9.70741 13.5938 8.67188C13.5938 7.63634 12.7543 6.79688 11.7188 6.79688C10.6832 6.79688 9.84375 7.63634 9.84375 8.67188Z" fill="#717680"/>
<path d="M16.1719 15C16.1719 16.0355 17.0113 16.875 18.0469 16.875C19.0824 16.875 19.9219 16.0355 19.9219 15C19.9219 13.9645 19.0824 13.125 18.0469 13.125C17.0113 13.125 16.1719 13.9645 16.1719 15Z" fill="#717680"/>
<path d="M16.1719 21.3281C16.1719 22.3637 17.0113 23.2031 18.0469 23.2031C19.0824 23.2031 19.9219 22.3637 19.9219 21.3281C19.9219 20.2926 19.0824 19.4531 18.0469 19.4531C17.0113 19.4531 16.1719 20.2926 16.1719 21.3281Z" fill="#717680"/>
<path d="M16.1719 8.67188C16.1719 9.70741 17.0113 10.5469 18.0469 10.5469C19.0824 10.5469 19.9219 9.70741 19.9219 8.67188C19.9219 7.63634 19.0824 6.79688 18.0469 6.79688C17.0113 6.79688 16.1719 7.63634 16.1719 8.67188Z" fill="#717680"/>
</svg>
