<svg width="24" height="24" viewBox="0 0 24 24" fill="none" xmlns="http://www.w3.org/2000/svg">
<rect width="24" height="24" rx="12" fill="#003B36"/>
<path d="M8.13567 17V7.2H11.9717C12.6717 7.2 13.3017 7.31667 13.8617 7.55C14.431 7.78333 14.9163 8.11933 15.3177 8.558C15.719 8.99667 16.027 9.51467 16.2417 10.112C16.4563 10.7093 16.5637 11.372 16.5637 12.1C16.5637 12.828 16.4563 13.4953 16.2417 14.102C16.027 14.6993 15.719 15.2173 15.3177 15.656C14.9257 16.0853 14.445 16.4167 13.8757 16.65C13.3063 16.8833 12.6717 17 11.9717 17H8.13567ZM9.64767 15.698L9.60567 15.544H11.9017C12.3963 15.544 12.835 15.4647 13.2177 15.306C13.6097 15.1473 13.9363 14.9233 14.1977 14.634C14.4683 14.3353 14.6737 13.9713 14.8137 13.542C14.9537 13.1127 15.0237 12.632 15.0237 12.1C15.0237 11.568 14.9537 11.092 14.8137 10.672C14.6737 10.2427 14.4683 9.87867 14.1977 9.58C13.927 9.28133 13.6003 9.05267 13.2177 8.894C12.835 8.73533 12.3963 8.656 11.9017 8.656H9.56367L9.64767 8.53V15.698Z" fill="white"/>
</svg>
