<svg width="33" height="33" viewBox="0 0 33 33" fill="none" xmlns="http://www.w3.org/2000/svg">
<rect width="32.6141" height="32.6141" rx="6" fill="white"/>
<rect x="0.5" y="0.5" width="31.6141" height="31.6141" rx="5.5" stroke="#A1A1A1" stroke-opacity="0.3"/>
<g clip-path="url(#clip0_2073_3032)">
<path d="M14.3335 8.77772C14.3335 8.47089 14.5822 8.22217 14.8891 8.22217H17.1113C17.4181 8.22217 17.6668 8.47089 17.6668 8.77772C17.6668 9.08456 17.4181 9.33328 17.1113 9.33328H14.8891C14.5822 9.33328 14.3335 9.08456 14.3335 8.77772Z" fill="#262626"/>
<path fill-rule="evenodd" clip-rule="evenodd" d="M21.202 12.9557C21.0006 13.1142 20.7391 13.2405 20.4235 13.3433C20.4374 13.4863 20.4445 13.6313 20.4445 13.7778C20.4445 16.2324 18.4547 18.2222 16.0001 18.2222C13.5455 18.2222 11.5556 16.2324 11.5556 13.7778C11.5556 13.6313 11.5627 13.4863 11.5766 13.3433C11.2611 13.2405 10.9995 13.1142 10.7981 12.9557C10.5367 12.7501 10.362 12.4754 10.3414 12.1458C10.3223 11.8394 10.4431 11.5797 10.5646 11.3963C10.6886 11.2091 10.8469 11.0504 10.9864 10.9287C11.064 10.8608 11.1412 10.7999 11.2121 10.7473C11.1911 10.6332 11.1678 10.4956 11.1447 10.3359C11.0719 9.83339 11.0001 9.11217 11.0001 8.22222C11.0001 8.04796 11.0745 7.9178 11.1091 7.86252C11.1525 7.79351 11.2037 7.73393 11.2497 7.68606C11.3429 7.58901 11.4626 7.49027 11.5943 7.39482C11.861 7.20152 12.2282 6.98463 12.6636 6.78133C13.5319 6.37595 14.7242 6 16.0001 6C17.276 6 18.4683 6.37595 19.3365 6.78133C19.772 6.98463 20.1392 7.20152 20.4059 7.39482C20.5375 7.49027 20.6572 7.58901 20.7504 7.68606C20.7964 7.73393 20.8477 7.79351 20.891 7.86252C20.9257 7.9178 21.0001 8.04796 21.0001 8.22222C21.0001 9.11228 20.9282 9.8335 20.8555 10.336C20.8323 10.4956 20.8091 10.6332 20.788 10.7473C20.8589 10.7999 20.9361 10.8608 21.0138 10.9287C21.1533 11.0504 21.3115 11.2091 21.4355 11.3963C21.557 11.5797 21.6779 11.8394 21.6587 12.1458C21.6381 12.4754 21.4634 12.7501 21.202 12.9557ZM12.1122 8.39911C12.1209 9.14778 12.183 9.75322 12.2444 10.1766C12.2587 10.2762 12.2731 10.3656 12.2867 10.4444H19.7134C19.727 10.3657 19.7414 10.2762 19.7558 10.1767C19.8171 9.75333 19.8793 9.14789 19.888 8.39911C19.8544 8.37039 19.81 8.33522 19.7537 8.29439C19.5534 8.14918 19.2491 7.96676 18.8665 7.78811C18.0986 7.42961 17.0688 7.11111 16.0001 7.11111C14.9314 7.11111 13.9015 7.42961 13.1337 7.78811C12.7511 7.96676 12.4468 8.14918 12.2465 8.29439C12.1901 8.33522 12.1458 8.37039 12.1122 8.39911ZM11.9935 11.5556L11.9915 11.5569C11.9137 11.6091 11.8134 11.6816 11.7169 11.7658C11.6177 11.8524 11.5394 11.9368 11.4909 12.0099C11.4763 12.032 11.4669 12.0492 11.4609 12.0618C11.4671 12.0676 11.4751 12.0745 11.4852 12.0825C11.568 12.1477 11.7471 12.2442 12.096 12.3388C12.1648 12.3575 12.2387 12.3757 12.3178 12.3933L12.3225 12.3943C12.6015 12.4561 12.9447 12.5107 13.3634 12.5544C13.9564 12.6163 14.7023 12.6567 15.6342 12.6651C15.7531 12.6661 15.8751 12.6667 16.0001 12.6667C17.7926 12.6667 18.9521 12.555 19.6776 12.3943L19.6824 12.3933C19.7615 12.3757 19.8353 12.3575 19.9041 12.3388C20.253 12.2442 20.4321 12.1477 20.5149 12.0825C20.5251 12.0745 20.5331 12.0676 20.5393 12.0618C20.5332 12.0492 20.5239 12.032 20.5092 12.0099C20.4608 11.9368 20.3824 11.8524 20.2832 11.7658C20.1867 11.6816 20.0865 11.6091 20.0087 11.5569L20.0067 11.5556H11.9935ZM15.8486 13.7778C17.3169 13.7778 18.454 13.7001 19.3266 13.5643C19.3311 13.6348 19.3334 13.706 19.3334 13.7778C19.3334 15.6187 17.841 17.1111 16 17.1111C14.1591 17.1111 12.6667 15.6187 12.6667 13.7778C12.6667 13.719 12.6682 13.6606 12.6712 13.6026C13.4837 13.7147 14.5255 13.7778 15.8486 13.7778ZM11.599 24.2652C11.5704 24.469 11.5556 24.6772 11.5556 24.8889V25.4444C11.5556 25.7513 11.3069 26 11.0001 26C10.7954 26 10.6165 25.8893 10.5201 25.7244C10.1586 25.9199 9.72458 25.9829 9.29625 25.8682L8.22303 25.5806C7.33391 25.3423 6.80627 24.4284 7.04451 23.5393L7.47587 21.9294C7.71411 21.0403 8.62803 20.5127 9.51714 20.7509L10.5904 21.0386C10.9639 21.1386 11.2737 21.358 11.4896 21.6447C12.4984 20.2447 14.1428 19.3333 16.0001 19.3333C17.8567 19.3333 19.5006 20.2441 20.5095 21.6433C20.7254 21.3575 21.0346 21.1388 21.4073 21.0389L22.4806 20.7514C23.3697 20.5132 24.2836 21.0408 24.5218 21.9299L24.9532 23.5398C25.1914 24.4289 24.6637 25.3428 23.7746 25.581L22.7014 25.8686C22.2737 25.9832 21.8404 25.9206 21.4792 25.7258C21.3826 25.8899 21.2042 26 21.0001 26C20.6932 26 20.4445 25.7513 20.4445 25.4444V24.8889C20.4445 24.6772 20.4297 24.469 20.4011 24.2652L17.51 25.0399C17.2441 25.6071 16.668 26 16.0001 26C15.3322 26 14.756 25.6071 14.4901 25.0398L11.599 24.2652ZM14.4 23.8654C14.5502 23.3507 14.9421 22.9391 15.4445 22.7615V20.4788C13.8331 20.6798 12.4895 21.7434 11.8906 23.193L14.4 23.8654ZM20.1095 23.193C19.5106 21.7434 18.1671 20.6798 16.5556 20.4788V22.7615C17.058 22.9391 17.4499 23.3507 17.6001 23.8654L20.1095 23.193ZM21.302 22.7926C21.2226 22.4963 21.3985 22.1916 21.6949 22.1122L22.7681 21.8247C23.0645 21.7452 23.3691 21.9211 23.4486 22.2175L23.8799 23.8273C23.9594 24.1237 23.7835 24.4283 23.4871 24.5078L22.4139 24.7953C22.1175 24.8748 21.8128 24.6989 21.7334 24.4025L21.302 22.7926ZM9.22953 21.8242C8.93319 21.7448 8.62853 21.9207 8.54914 22.2171L8.11776 23.8269C8.03835 24.1233 8.21423 24.4279 8.51058 24.5073L9.58386 24.7949C9.88019 24.8743 10.1849 24.6984 10.2642 24.4021L10.6956 22.7922C10.775 22.4958 10.5991 22.1912 10.3028 22.1118L9.22953 21.8242ZM16.5556 24.3333C16.5556 24.6402 16.3069 24.8889 16.0001 24.8889C15.6932 24.8889 15.4445 24.6402 15.4445 24.3333C15.4445 24.0265 15.6932 23.7778 16.0001 23.7778C16.3069 23.7778 16.5556 24.0265 16.5556 24.3333Z" fill="#262626"/>
</g>
<defs>
<clipPath id="clip0_2073_3032">
<rect width="20" height="20" fill="white" transform="translate(6 6)"/>
</clipPath>
</defs>
</svg>
