<svg width="12" height="16" viewBox="0 0 12 16" fill="none" xmlns="http://www.w3.org/2000/svg">
<path d="M5.99996 0.439941C3.22796 0.439941 0.959961 2.67194 0.959961 5.42594C0.959961 11.2939 5.56796 15.3079 5.76596 15.4879C5.89196 15.5959 6.10796 15.5959 6.23396 15.4879C6.43196 15.3079 11.04 11.2759 11.04 5.42594C11.04 2.67194 8.77196 0.439941 5.99996 0.439941ZM5.99996 14.7139C5.06396 13.8139 1.67996 10.2139 1.67996 5.42594C1.67996 3.06794 3.62396 1.15994 5.99996 1.15994C8.37596 1.15994 10.32 3.06794 10.32 5.42594C10.32 10.2139 6.93596 13.8139 5.99996 14.7139ZM5.99996 2.59994C4.41596 2.59994 3.11996 3.89594 3.11996 5.47994C3.11996 7.06394 4.41596 8.35994 5.99996 8.35994C7.58396 8.35994 8.87996 7.06394 8.87996 5.47994C8.87996 3.89594 7.58396 2.59994 5.99996 2.59994ZM5.99996 7.63994C4.81196 7.63994 3.83996 6.66794 3.83996 5.47994C3.83996 4.29194 4.81196 3.31994 5.99996 3.31994C7.18796 3.31994 8.15996 4.29194 8.15996 5.47994C8.15996 6.66794 7.18796 7.63994 5.99996 7.63994Z" fill="#012622"/>
</svg>
