<svg width="33" height="33" viewBox="0 0 33 33" fill="none" xmlns="http://www.w3.org/2000/svg">
<rect width="32.6141" height="32.6141" rx="6" fill="white"/>
<rect x="0.5" y="0.5" width="31.6141" height="31.6141" rx="5.5" stroke="#A1A1A1" stroke-opacity="0.3"/>
<g clip-path="url(#clip0_2073_3012)">
<path fill-rule="evenodd" clip-rule="evenodd" d="M11.6 8.72705C9.19201 8.72705 7.23637 10.6827 7.23637 13.0907C7.23637 15.4987 9.19201 17.4543 11.6 17.4543C14.0087 17.4543 15.9636 15.4987 15.9636 13.0907C15.9636 10.6827 14.0087 8.72705 11.6 8.72705ZM11.6 10.1816C13.2058 10.1816 14.5091 11.4849 14.5091 13.0907C14.5091 14.6965 13.2058 15.9998 11.6 15.9998C9.99492 15.9998 8.69091 14.6965 8.69091 13.0907C8.69091 11.4849 9.99492 10.1816 11.6 10.1816ZM21.7818 8.72705C19.3738 8.72705 17.4182 10.6827 17.4182 13.0907C17.4182 15.4987 19.3738 17.4543 21.7818 17.4543C24.1906 17.4543 26.1455 15.4987 26.1455 13.0907C26.1455 10.6827 24.1906 8.72705 21.7818 8.72705ZM21.7818 10.1816C23.3876 10.1816 24.6909 11.4849 24.6909 13.0907C24.6909 14.6965 23.3876 15.9998 21.7818 15.9998C20.1767 15.9998 18.8727 14.6965 18.8727 13.0907C18.8727 11.4849 20.1767 10.1816 21.7818 10.1816ZM16.6909 19.0943C15.2575 18.0623 13.4996 17.4543 11.6 17.4543C9.50546 17.4543 7.58255 18.194 6.07782 19.426C5.76655 19.6798 5.72146 20.1387 5.97528 20.4492C6.22982 20.7598 6.68801 20.8056 6.99855 20.5511C8.25237 19.5249 9.85528 18.9089 11.6 18.9089C13.056 18.9089 14.4116 19.3372 15.5491 20.0747C14.9229 20.714 14.3949 21.4485 13.9876 22.255C13.8066 22.6129 13.9506 23.0507 14.3084 23.2318C14.6669 23.4129 15.1047 23.2689 15.2858 22.9103C16.4844 20.538 18.944 18.9089 21.7818 18.9089C22.984 18.9089 24.1178 19.2005 25.1164 19.7176C25.4735 19.9023 25.912 19.7627 26.0967 19.4063C26.2815 19.05 26.1418 18.6107 25.7855 18.426C24.5855 17.8056 23.2247 17.4543 21.7818 17.4543C19.8829 17.4543 18.1244 18.0623 16.6909 19.0943Z" fill="#262626"/>
</g>
<defs>
<clipPath id="clip0_2073_3012">
<rect width="23.2727" height="16" fill="white" transform="translate(4.36377 8)"/>
</clipPath>
</defs>
</svg>
