<svg width="16" height="17" viewBox="0 0 16 17" fill="none" xmlns="http://www.w3.org/2000/svg">
<path d="M15.4182 0.21028C15.0727 0.140781 14.7273 0.314528 14.6 0.627274C14.4 1.06164 12.4727 2.97287 10.8182 3.04237C9.87273 3.07712 9 2.45163 8.07273 1.79138C6.87273 0.957395 5.54545 0.0191574 3.83636 0.331903C1.30909 0.783647 0.127273 2.95549 0.0727273 3.05974C2.7093e-08 3.19874 -0.0181818 3.37249 0.0181818 3.52886L0.745455 6.63894L2.87273 15.6565C2.94545 15.9866 3.25455 16.1951 3.58182 16.1951C3.63636 16.1951 3.69091 16.1951 3.74545 16.1777C4.14545 16.0908 4.38182 15.7259 4.29091 15.3437L3.05455 10.0791C3.38182 9.59266 4.30909 8.3938 5.76364 8.08105C6.63636 7.88993 7.32727 8.1158 8.12727 8.35905C9.01818 8.63704 10.0364 8.96716 11.3455 8.68917C14.0909 8.08105 15.9455 4.95359 16 0.887896C16 0.557775 15.7636 0.279779 15.4182 0.21028ZM11.0182 7.33394C10.1091 7.52506 9.4 7.29919 8.58182 7.03856C7.69091 6.76057 6.69091 6.43045 5.43636 6.70844C4.2 6.96907 3.27273 7.66406 2.63636 8.3243L2.56364 8.01155L1.49091 3.49411C1.8 3.04237 2.65455 1.96513 4.09091 1.70451C5.18182 1.51339 6.10909 2.15625 7.18182 2.92074C8.21818 3.65048 9.41818 4.48447 10.8545 4.43235C12.0727 4.38022 13.3273 3.70261 14.3091 2.93812C13.8909 5.02309 12.8182 6.93432 11.0182 7.33394Z" fill="#FF0000"/>
</svg>
