<svg width="33" height="33" viewBox="0 0 33 33" fill="none" xmlns="http://www.w3.org/2000/svg">
<rect width="32.6141" height="32.6141" rx="6" fill="white"/>
<rect x="0.5" y="0.5" width="31.6141" height="31.6141" rx="5.5" stroke="#A1A1A1" stroke-opacity="0.3"/>
<path d="M11.4888 18.9743C11.4888 19.6186 12.0111 20.141 12.6554 20.141C13.2998 20.141 13.8221 19.6186 13.8221 18.9743C13.8221 18.8734 13.8054 18.7774 13.7813 18.684L15.2989 16.0276L17.956 17.546C18.0965 18.0328 18.5402 18.391 19.0721 18.391C19.7164 18.391 20.2388 17.8686 20.2388 17.2243C20.2388 17.1184 20.2201 17.0177 20.1937 16.9201L22.3237 13.0863C22.8036 12.9416 23.1554 12.5014 23.1554 11.9743C23.1554 11.33 22.6331 10.8076 21.9888 10.8076C21.3444 10.8076 20.8221 11.33 20.8221 11.9743C20.8221 12.0798 20.8406 12.1801 20.8669 12.2773L18.7528 16.0822L16.1047 14.5687C15.9642 14.0822 15.5205 13.7243 14.9888 13.7243C14.3444 13.7243 13.8221 14.2466 13.8221 14.891C13.8221 14.992 13.839 15.0883 13.8631 15.1817L12.3339 17.8581C11.8471 17.9985 11.4888 18.4423 11.4888 18.9743Z" fill="#262626"/>
<path d="M23.9886 21.3078H9.82194V10.4744C9.82194 10.0139 9.44919 9.64111 8.98861 9.64111C8.52802 9.64111 8.15527 10.0139 8.15527 10.4744V22.1411C8.15527 22.6017 8.52802 22.9744 8.98861 22.9744H23.9886C24.4492 22.9744 24.8219 22.6017 24.8219 22.1411C24.8219 21.6805 24.4492 21.3078 23.9886 21.3078Z" fill="#262626"/>
</svg>
