<svg width="24" height="24" viewBox="0 0 24 24" fill="none" xmlns="http://www.w3.org/2000/svg">
<rect width="24" height="24" rx="12" fill="#E98A15"/>
<path d="M12.0278 17.14C11.2252 17.14 10.5158 16.9813 9.89984 16.664C9.29317 16.3467 8.7705 15.8707 8.33184 15.236L9.36784 14.046C9.82517 14.6993 10.2638 15.152 10.6838 15.404C11.1038 15.656 11.6032 15.782 12.1818 15.782C12.5365 15.782 12.8585 15.726 13.1478 15.614C13.4372 15.502 13.6658 15.348 13.8338 15.152C14.0018 14.956 14.0858 14.732 14.0858 14.48C14.0858 14.312 14.0578 14.1533 14.0018 14.004C13.9458 13.8547 13.8572 13.7193 13.7358 13.598C13.6238 13.4767 13.4745 13.3647 13.2878 13.262C13.1105 13.1593 12.9005 13.0707 12.6578 12.996C12.4152 12.912 12.1352 12.842 11.8178 12.786C11.3138 12.6833 10.8752 12.548 10.5018 12.38C10.1285 12.212 9.81584 12.002 9.56384 11.75C9.31184 11.498 9.12517 11.2133 9.00384 10.896C8.8825 10.5693 8.82184 10.2053 8.82184 9.804C8.82184 9.272 8.97117 8.80067 9.26984 8.39C9.5685 7.97933 9.96984 7.65733 10.4738 7.424C10.9872 7.18133 11.5612 7.06 12.1958 7.06C12.9518 7.06 13.6098 7.20933 14.1698 7.508C14.7392 7.79733 15.1872 8.222 15.5138 8.782L14.4498 9.832C14.1698 9.37467 13.8338 9.02467 13.4418 8.782C13.0592 8.53933 12.6298 8.418 12.1538 8.418C11.7898 8.418 11.4725 8.474 11.2018 8.586C10.9312 8.698 10.7165 8.85667 10.5578 9.062C10.4085 9.258 10.3338 9.49133 10.3338 9.762C10.3338 9.958 10.3712 10.14 10.4458 10.308C10.5205 10.4667 10.6325 10.6113 10.7818 10.742C10.9405 10.8633 11.1505 10.9753 11.4118 11.078C11.6732 11.1713 11.9858 11.2553 12.3498 11.33C12.8632 11.442 13.3205 11.5867 13.7218 11.764C14.1232 11.932 14.4638 12.1327 14.7438 12.366C15.0238 12.5993 15.2338 12.8607 15.3738 13.15C15.5232 13.4393 15.5978 13.752 15.5978 14.088C15.5978 14.7133 15.4532 15.2547 15.1638 15.712C14.8745 16.1693 14.4638 16.524 13.9318 16.776C13.3998 17.0187 12.7652 17.14 12.0278 17.14Z" fill="white"/>
</svg>
