<svg width="91" height="113" viewBox="0 0 91 113" fill="none" xmlns="http://www.w3.org/2000/svg">
<path d="M56.297 49.5471L47.3955 44.4039V26.5416C47.3955 25.4946 46.5466 24.6458 45.4997 24.6458C44.4527 24.6458 43.6038 25.4946 43.6038 26.5416V45.4999C43.6041 46.1768 43.9653 46.8021 44.5518 47.1403L54.4012 52.8278C54.6891 52.9953 55.0161 53.0835 55.3491 53.0833C56.0253 53.0828 56.65 52.7222 56.9885 52.137C57.5127 51.2309 57.2033 50.0713 56.297 49.5471ZM45.4997 7.58325C24.559 7.58325 7.58301 24.5592 7.58301 45.4999C7.58301 66.4406 24.559 83.4166 45.4997 83.4166C66.4302 83.3921 83.3918 66.4305 83.4163 45.4999C83.4163 24.5592 66.4404 7.58325 45.4997 7.58325ZM45.4997 79.6249C26.6529 79.6249 11.3747 64.3467 11.3747 45.4999C11.3747 26.6531 26.6529 11.3749 45.4997 11.3749C64.3379 11.3955 79.6041 26.6617 79.6247 45.4999C79.6247 64.3467 64.3465 79.6249 45.4997 79.6249Z" fill="#E98A15"/>
<path d="M28.3741 108.192C25.3181 108.192 23.9581 105.424 23.9581 102.672C23.9581 99.92 25.3181 97.168 28.3741 97.168C31.4141 97.168 32.7901 99.92 32.7901 102.672C32.7901 105.424 31.4141 108.192 28.3741 108.192ZM28.3741 106.176C29.8941 106.176 30.4701 104.64 30.4701 102.672C30.4701 100.704 29.8941 99.184 28.3741 99.184C26.8381 99.184 26.2621 100.704 26.2621 102.672C26.2621 104.64 26.8381 106.176 28.3741 106.176ZM38.2959 108.192C35.2399 108.192 33.8799 105.424 33.8799 102.672C33.8799 99.92 35.2399 97.168 38.2959 97.168C41.3359 97.168 42.7119 99.92 42.7119 102.672C42.7119 105.424 41.3359 108.192 38.2959 108.192ZM38.2959 106.176C39.8159 106.176 40.3919 104.64 40.3919 102.672C40.3919 100.704 39.8159 99.184 38.2959 99.184C36.7599 99.184 36.1839 100.704 36.1839 102.672C36.1839 104.64 36.7599 106.176 38.2959 106.176ZM45.3058 102.752C44.6018 102.752 44.0098 102.16 44.0098 101.456C44.0098 100.752 44.6018 100.16 45.3058 100.16C46.0098 100.16 46.6018 100.752 46.6018 101.456C46.6018 102.16 46.0098 102.752 45.3058 102.752ZM45.3058 108.176C44.6018 108.176 44.0098 107.584 44.0098 106.88C44.0098 106.176 44.6018 105.584 45.3058 105.584C46.0098 105.584 46.6018 106.176 46.6018 106.88C46.6018 107.584 46.0098 108.176 45.3058 108.176ZM51.8014 108.192C49.8334 108.192 48.3774 107.44 47.5934 106.48L48.7774 104.96C49.5134 105.728 50.6814 106.176 51.7214 106.176C53.0174 106.176 53.7374 105.616 53.7374 104.816C53.7374 103.968 53.0814 103.584 51.5934 103.584C51.1454 103.584 50.4254 103.6 50.2654 103.616V101.568C50.4574 101.584 51.1934 101.584 51.5934 101.584C52.7774 101.584 53.5614 101.232 53.5614 100.448C53.5614 99.6 52.6974 99.184 51.5774 99.184C50.5534 99.184 49.6254 99.568 48.8734 100.288L47.7374 98.864C48.6014 97.888 49.9454 97.168 51.8174 97.168C54.3134 97.168 55.8494 98.288 55.8494 100.064C55.8494 101.408 54.6974 102.288 53.5134 102.496C54.6014 102.608 56.0094 103.456 56.0094 105.056C56.0094 106.896 54.3614 108.192 51.8014 108.192ZM61.6241 108.192C58.5681 108.192 57.2081 105.424 57.2081 102.672C57.2081 99.92 58.5681 97.168 61.6241 97.168C64.6641 97.168 66.0401 99.92 66.0401 102.672C66.0401 105.424 64.6641 108.192 61.6241 108.192ZM61.6241 106.176C63.1441 106.176 63.7201 104.64 63.7201 102.672C63.7201 100.704 63.1441 99.184 61.6241 99.184C60.0881 99.184 59.5121 100.704 59.5121 102.672C59.5121 104.64 60.0881 106.176 61.6241 106.176Z" fill="#E98A15"/>
</svg>
