<svg width="33" height="33" viewBox="0 0 33 33" fill="none" xmlns="http://www.w3.org/2000/svg">
<rect width="32.6141" height="32.6141" rx="6" fill="white"/>
<rect x="0.5" y="0.5" width="31.6141" height="31.6141" rx="5.5" stroke="#A1A1A1" stroke-opacity="0.3"/>
<g clip-path="url(#clip0_2073_3041)">
<path fill-rule="evenodd" clip-rule="evenodd" d="M10.5 10C10.5 7.51472 12.5147 5.5 15 5.5H17C19.4853 5.5 21.5 7.51472 21.5 10V22C21.5 24.4853 19.4853 26.5 17 26.5H15C12.5147 26.5 10.5 24.4853 10.5 22V10ZM15 6.5C13.067 6.5 11.5 8.067 11.5 10V22C11.5 23.933 13.067 25.5 15 25.5H17C18.933 25.5 20.5 23.933 20.5 22V10C20.5 8.067 18.933 6.5 17 6.5H15Z" fill="#262626"/>
<path fill-rule="evenodd" clip-rule="evenodd" d="M16 5.5C16.2761 5.5 16.5 5.72386 16.5 6V26C16.5 26.2761 16.2761 26.5 16 26.5C15.7239 26.5 15.5 26.2761 15.5 26V6C15.5 5.72386 15.7239 5.5 16 5.5ZM21.3536 11.6465C21.5488 11.8417 21.5488 12.1583 21.3536 12.3535L19.3536 14.3536C19.1583 14.5488 18.8417 14.5488 18.6464 14.3536C18.4512 14.1583 18.4512 13.8417 18.6464 13.6465L20.6464 11.6465C20.8417 11.4512 21.1583 11.4512 21.3536 11.6465ZM10.6465 11.6465C10.4512 11.8417 10.4512 12.1583 10.6465 12.3535L12.6465 14.3536C12.8417 14.5488 13.1583 14.5488 13.3536 14.3536C13.5488 14.1583 13.5488 13.8417 13.3536 13.6465L11.3536 11.6465C11.1583 11.4512 10.8417 11.4512 10.6465 11.6465ZM21.3536 15.6464C21.5488 15.8417 21.5488 16.1583 21.3536 16.3536L19.3536 18.3536C19.1583 18.5488 18.8417 18.5488 18.6464 18.3536C18.4512 18.1583 18.4512 17.8417 18.6464 17.6464L20.6464 15.6464C20.8417 15.4512 21.1583 15.4512 21.3536 15.6464ZM10.6465 15.6464C10.4512 15.8417 10.4512 16.1583 10.6465 16.3536L12.6465 18.3536C12.8417 18.5488 13.1583 18.5488 13.3536 18.3536C13.5488 18.1583 13.5488 17.8417 13.3536 17.6464L11.3536 15.6464C11.1583 15.4512 10.8417 15.4512 10.6465 15.6464ZM21.3536 19.6464C21.5488 19.8417 21.5488 20.1583 21.3536 20.3536L19.3536 22.3536C19.1583 22.5488 18.8417 22.5488 18.6464 22.3536C18.4512 22.1583 18.4512 21.8417 18.6464 21.6464L20.6464 19.6464C20.8417 19.4512 21.1583 19.4512 21.3536 19.6464ZM10.6465 19.6464C10.4512 19.8417 10.4512 20.1583 10.6465 20.3536L12.6465 22.3536C12.8417 22.5488 13.1583 22.5488 13.3536 22.3536C13.5488 22.1583 13.5488 21.8417 13.3536 21.6464L11.3536 19.6464C11.1583 19.4512 10.8417 19.4512 10.6465 19.6464ZM20.8536 8.14645C21.0488 8.34171 21.0488 8.65829 20.8536 8.85355L19.3536 10.3535C19.1583 10.5488 18.8417 10.5488 18.6464 10.3535C18.4512 10.1583 18.4512 9.84171 18.6464 9.64645L20.1464 8.14645C20.3417 7.95118 20.6583 7.95118 20.8536 8.14645ZM11.1465 8.14645C10.9512 8.34171 10.9512 8.65829 11.1465 8.85355L12.6465 10.3535C12.8417 10.5488 13.1583 10.5488 13.3536 10.3535C13.5488 10.1583 13.5488 9.84171 13.3536 9.64645L11.8536 8.14645C11.6583 7.95118 11.3417 7.95118 11.1465 8.14645Z" fill="#262626"/>
</g>
<defs>
<clipPath id="clip0_2073_3041">
<rect width="14" height="22" fill="white" transform="translate(9 5)"/>
</clipPath>
</defs>
</svg>
