<svg width="180" height="62" viewBox="0 0 180 62" fill="none" xmlns="http://www.w3.org/2000/svg">
<g clip-path="url(#clip0_927_4731)">
<path d="M154.857 17.4607V15.4135H154.14V15.158H155.862V15.4135H155.139V17.4607H154.857Z" fill="#012622"/>
<path d="M158.516 17.4607V15.5441L157.744 17.4607H157.629L156.859 15.5441V17.4607H156.577V15.158H156.982L157.686 16.9135L158.396 15.158H158.801V17.4607H158.519H158.516Z" fill="#012622"/>
<path d="M42.5027 15.158H59.4637V20.1995H48.2869V23.4383H59.231V28.1132H48.2869V31.5048H59.6144V36.5464H42.5027V15.158Z" fill="#E98A15"/>
<path d="M75.3759 20.3523H69.0494V15.158H87.5469V20.3523H81.2204V36.5464H75.3759V20.3523Z" fill="#012622"/>
<path d="M113.532 15.158H123.504C126.728 15.158 128.957 16.0135 130.373 17.4801C131.608 18.7023 132.241 20.3523 132.241 22.4606V22.5217C132.241 25.7911 130.523 27.9605 127.902 29.091L132.934 36.5464H126.185L121.937 30.0687H119.377V36.5464H113.532V15.158ZM123.233 25.4244C125.221 25.4244 126.366 24.4466 126.366 22.8883V22.8272C126.366 21.1467 125.161 20.2912 123.203 20.2912H119.377V25.4244H123.233Z" fill="#012622"/>
<path d="M135.193 15.158H152.154V20.1995H140.977V23.4383H152.195V28.1132H140.977V31.5048H152.305V36.5464H135.193V15.158Z" fill="#012622"/>
<path d="M35.2124 29.091C37.8334 27.9605 39.5505 25.7911 39.5505 22.5217V22.4606C39.5505 20.3523 38.9179 18.7023 37.6827 17.4801C36.2668 16.0135 34.0374 15.158 30.8139 15.158H20.8422V20.2356H29.2748V18.6801L34.4209 22.2939L29.2748 25.9077V24.3522H23.0332C21.8226 24.3522 20.8422 25.3466 20.8422 26.5744V36.5436H26.6866V30.066H29.2474L33.4952 36.5436H40.2434L35.2124 29.0882V29.091Z" fill="#E98A15"/>
<path d="M61.8519 28.116V23.4244H69.074V28.116H61.8519Z" fill="#012622"/>
<path d="M97.8418 28.541L89.8282 15.158H96.4861L100.824 22.9495L105.193 15.158H111.73L103.716 28.4493V36.5464H97.8418V28.541Z" fill="#012622"/>
<path d="M46.5095 46.6787L45.4358 45.005H44.5958V46.6787H44.0716V42.4661H45.7642C45.9579 42.4661 46.1348 42.4956 46.2948 42.5545C46.4548 42.6134 46.5937 42.6998 46.7116 42.8134C46.8295 42.9229 46.92 43.0556 46.9832 43.2113C47.0506 43.3671 47.0842 43.5419 47.0842 43.7356C47.0842 43.925 47.0548 44.0934 46.9958 44.2408C46.9369 44.3882 46.8569 44.5124 46.7558 44.6134C46.6548 44.7145 46.5369 44.7945 46.4021 44.8534C46.2716 44.9124 46.1348 44.9482 45.9916 44.9608L47.1285 46.6787H46.5095ZM45.7011 44.544C45.9537 44.544 46.1558 44.4703 46.3074 44.3229C46.4632 44.1713 46.5411 43.9756 46.5411 43.7356C46.5411 43.4956 46.4632 43.3019 46.3074 43.1545C46.1558 43.0071 45.9537 42.9334 45.7011 42.9334H44.5958V44.544H45.7011ZM48.7983 46.6787V42.4661H51.5583V42.9334H49.3225V44.2913H51.5141V44.7587H49.3225V46.2113H51.5583V46.6787H48.7983ZM54.6426 46.7545C54.272 46.7545 53.9541 46.6934 53.6889 46.5713C53.4236 46.445 53.2026 46.2829 53.0257 46.085L53.3352 45.6871C53.4026 45.7629 53.4826 45.8387 53.5752 45.9145C53.6678 45.9861 53.7689 46.0492 53.8784 46.104C53.992 46.1587 54.1141 46.2029 54.2447 46.2366C54.3752 46.2703 54.5141 46.2871 54.6615 46.2871C54.851 46.2871 55.0089 46.264 55.1352 46.2177C55.2615 46.1713 55.3626 46.1145 55.4384 46.0471C55.5141 45.9756 55.5689 45.8977 55.6026 45.8134C55.6362 45.725 55.6531 45.6408 55.6531 45.5608C55.6531 45.4261 55.6173 45.3145 55.5457 45.2261C55.4741 45.1377 55.3794 45.064 55.2615 45.005C55.1478 44.9419 55.0152 44.8913 54.8636 44.8534C54.7162 44.8113 54.5626 44.7692 54.4026 44.7271C54.2468 44.6808 54.0931 44.6303 53.9415 44.5756C53.7941 44.5208 53.6615 44.4513 53.5436 44.3671C53.4299 44.2787 53.3373 44.1713 53.2657 44.045C53.1941 43.9187 53.1584 43.7608 53.1584 43.5713C53.1584 43.3987 53.1941 43.2408 53.2657 43.0977C53.3415 42.9545 53.4426 42.8324 53.5689 42.7313C53.6994 42.6261 53.8531 42.5461 54.0299 42.4913C54.2068 42.4324 54.3984 42.4029 54.6047 42.4029C54.9289 42.4029 55.2152 42.4534 55.4636 42.5545C55.712 42.6556 55.9247 42.8008 56.1015 42.9903L55.7857 43.3756C55.6257 43.1987 55.4405 43.0703 55.2299 42.9903C55.0194 42.9103 54.7984 42.8703 54.5668 42.8703C54.3141 42.8703 54.1057 42.9313 53.9415 43.0534C53.7815 43.1756 53.7015 43.3377 53.7015 43.5398C53.7015 43.6577 53.7373 43.7545 53.8089 43.8303C53.8805 43.9061 53.9731 43.9713 54.0868 44.0261C54.2047 44.0808 54.3373 44.1292 54.4847 44.1713C54.6362 44.2092 54.7899 44.2513 54.9457 44.2977C55.1057 44.3398 55.2594 44.3903 55.4068 44.4492C55.5584 44.5082 55.691 44.584 55.8047 44.6766C55.9226 44.7692 56.0173 44.8829 56.0889 45.0177C56.1605 45.1524 56.1962 45.3187 56.1962 45.5166C56.1962 45.6682 56.1689 45.8198 56.1141 45.9713C56.0594 46.1187 55.9689 46.2513 55.8426 46.3692C55.7205 46.4829 55.5605 46.5756 55.3626 46.6471C55.1647 46.7187 54.9247 46.7545 54.6426 46.7545ZM57.8632 46.6787V42.4661H59.5559C59.7664 42.4661 59.9537 42.4998 60.118 42.5671C60.2822 42.6345 60.419 42.7271 60.5285 42.845C60.6422 42.9587 60.7285 43.0934 60.7874 43.2492C60.8464 43.4008 60.8759 43.5629 60.8759 43.7356C60.8759 43.9082 60.8464 44.0724 60.7874 44.2282C60.7285 44.3798 60.6422 44.5145 60.5285 44.6324C60.4148 44.7461 60.2759 44.8366 60.1116 44.904C59.9474 44.9713 59.7622 45.005 59.5559 45.005H58.3874V46.6787H57.8632ZM59.4927 44.5377C59.7453 44.5377 59.9474 44.464 60.099 44.3166C60.2548 44.1692 60.3327 43.9756 60.3327 43.7356C60.3327 43.4956 60.2548 43.3019 60.099 43.1545C59.9474 43.0071 59.7453 42.9334 59.4927 42.9334H58.3874V44.5377H59.4927ZM64.3743 46.7545C64.0627 46.7545 63.7785 46.6998 63.5216 46.5903C63.2648 46.4808 63.0437 46.3292 62.8585 46.1356C62.6774 45.9377 62.5364 45.7061 62.4353 45.4408C62.3343 45.1756 62.2837 44.8871 62.2837 44.5756C62.2837 44.264 62.3343 43.9756 62.4353 43.7103C62.5364 43.445 62.6774 43.2156 62.8585 43.0219C63.0437 42.824 63.2648 42.6703 63.5216 42.5608C63.7785 42.4513 64.0627 42.3966 64.3743 42.3966C64.6858 42.3966 64.97 42.4513 65.2269 42.5608C65.4837 42.6703 65.7027 42.824 65.8837 43.0219C66.069 43.2156 66.2122 43.445 66.3132 43.7103C66.4143 43.9756 66.4648 44.264 66.4648 44.5756C66.4648 44.8871 66.4143 45.1756 66.3132 45.4408C66.2122 45.7061 66.069 45.9377 65.8837 46.1356C65.7027 46.3292 65.4837 46.4808 65.2269 46.5903C64.97 46.6998 64.6858 46.7545 64.3743 46.7545ZM64.3743 46.2871C64.61 46.2871 64.8227 46.245 65.0122 46.1608C65.2016 46.0724 65.3637 45.9524 65.4985 45.8008C65.6332 45.645 65.7364 45.464 65.8079 45.2577C65.8837 45.0471 65.9216 44.8198 65.9216 44.5756C65.9216 44.3313 65.8837 44.104 65.8079 43.8934C65.7364 43.6829 65.6332 43.5019 65.4985 43.3503C65.3637 43.1987 65.2016 43.0808 65.0122 42.9966C64.8227 42.9082 64.61 42.864 64.3743 42.864C64.1385 42.864 63.9237 42.9082 63.73 42.9966C63.5406 43.0808 63.3785 43.1987 63.2437 43.3503C63.109 43.5019 63.0058 43.6829 62.9343 43.8934C62.8627 44.104 62.8269 44.3313 62.8269 44.5756C62.8269 44.8198 62.8627 45.0471 62.9343 45.2577C63.0058 45.464 63.109 45.645 63.2437 45.8008C63.3785 45.9524 63.5406 46.0724 63.73 46.1608C63.9237 46.245 64.1385 46.2871 64.3743 46.2871ZM71.1489 46.6787L68.692 43.3187V46.6787H68.1678V42.4661H68.7047L71.1299 45.7566V42.4661H71.6541V46.6787H71.1489ZM74.8879 46.7545C74.5174 46.7545 74.1995 46.6934 73.9342 46.5713C73.6689 46.445 73.4479 46.2829 73.271 46.085L73.5805 45.6871C73.6479 45.7629 73.7279 45.8387 73.8205 45.9145C73.9131 45.9861 74.0142 46.0492 74.1237 46.104C74.2374 46.1587 74.3595 46.2029 74.49 46.2366C74.6205 46.2703 74.7595 46.2871 74.9068 46.2871C75.0963 46.2871 75.2542 46.264 75.3805 46.2177C75.5068 46.1713 75.6079 46.1145 75.6837 46.0471C75.7595 45.9756 75.8142 45.8977 75.8479 45.8134C75.8816 45.725 75.8984 45.6408 75.8984 45.5608C75.8984 45.4261 75.8626 45.3145 75.791 45.2261C75.7195 45.1377 75.6247 45.064 75.5068 45.005C75.3931 44.9419 75.2605 44.8913 75.1089 44.8534C74.9616 44.8113 74.8079 44.7692 74.6479 44.7271C74.4921 44.6808 74.3384 44.6303 74.1868 44.5756C74.0395 44.5208 73.9068 44.4513 73.7889 44.3671C73.6752 44.2787 73.5826 44.1713 73.511 44.045C73.4395 43.9187 73.4037 43.7608 73.4037 43.5713C73.4037 43.3987 73.4395 43.2408 73.511 43.0977C73.5868 42.9545 73.6879 42.8324 73.8142 42.7313C73.9447 42.6261 74.0984 42.5461 74.2752 42.4913C74.4521 42.4324 74.6437 42.4029 74.85 42.4029C75.1742 42.4029 75.4605 42.4534 75.7089 42.5545C75.9574 42.6556 76.17 42.8008 76.3468 42.9903L76.031 43.3756C75.871 43.1987 75.6858 43.0703 75.4752 42.9903C75.2647 42.9103 75.0437 42.8703 74.8121 42.8703C74.5595 42.8703 74.351 42.9313 74.1868 43.0534C74.0268 43.1756 73.9468 43.3377 73.9468 43.5398C73.9468 43.6577 73.9826 43.7545 74.0542 43.8303C74.1258 43.9061 74.2184 43.9713 74.3321 44.0261C74.45 44.0808 74.5826 44.1292 74.73 44.1713C74.8816 44.2092 75.0352 44.2513 75.191 44.2977C75.351 44.3398 75.5047 44.3903 75.6521 44.4492C75.8037 44.5082 75.9363 44.584 76.05 44.6766C76.1679 44.7692 76.2626 44.8829 76.3342 45.0177C76.4058 45.1524 76.4416 45.3187 76.4416 45.5166C76.4416 45.6682 76.4142 45.8198 76.3595 45.9713C76.3047 46.1187 76.2142 46.2513 76.0879 46.3692C75.9658 46.4829 75.8058 46.5756 75.6079 46.6471C75.41 46.7187 75.17 46.7545 74.8879 46.7545ZM78.1085 46.6787V42.4661H78.6327V46.6787H78.1085ZM80.5038 46.6787V42.4661H82.3796C82.5607 42.4661 82.7249 42.4934 82.8723 42.5482C83.0196 42.5987 83.1438 42.6724 83.2449 42.7692C83.346 42.8619 83.4238 42.9756 83.4786 43.1103C83.5333 43.2408 83.5607 43.384 83.5607 43.5398C83.5607 43.6745 83.5396 43.7966 83.4975 43.9061C83.4596 44.0156 83.4049 44.1124 83.3333 44.1966C83.266 44.2766 83.1881 44.344 83.0996 44.3987C83.0112 44.4492 82.9186 44.485 82.8217 44.5061C82.9354 44.5229 83.0407 44.5629 83.1375 44.6261C83.2386 44.6892 83.3249 44.7671 83.3965 44.8598C83.4723 44.9524 83.5312 45.0577 83.5733 45.1756C83.6196 45.2934 83.6428 45.4156 83.6428 45.5419C83.6428 45.7103 83.6154 45.864 83.5607 46.0029C83.506 46.1419 83.426 46.2619 83.3207 46.3629C83.2154 46.464 83.087 46.5419 82.9354 46.5966C82.7881 46.6513 82.6175 46.6787 82.4238 46.6787H80.5038ZM82.2912 44.2913C82.5312 44.2913 82.7123 44.2282 82.8344 44.1019C82.9565 43.9713 83.0175 43.8092 83.0175 43.6156C83.0175 43.4261 82.9565 43.2661 82.8344 43.1356C82.7123 43.0008 82.5312 42.9334 82.2912 42.9334H81.0281V44.2913H82.2912ZM82.3165 46.2113C82.5649 46.2113 82.7565 46.1482 82.8912 46.0219C83.0302 45.8913 83.0996 45.7124 83.0996 45.485C83.0996 45.3882 83.0828 45.2956 83.0491 45.2071C83.0154 45.1187 82.9649 45.0429 82.8975 44.9798C82.8344 44.9124 82.7544 44.8598 82.6575 44.8219C82.5607 44.7798 82.447 44.7587 82.3165 44.7587H81.0281V46.2113H82.3165ZM85.3601 46.6787V42.4661H85.8843V46.2113H87.8422V46.6787H85.3601ZM89.4639 46.6787V42.4661H92.2239V42.9334H89.9881V44.2913H92.1797V44.7587H89.9881V46.2113H92.2239V46.6787H89.4639ZM98.8943 46.6787L97.8206 45.005H96.9806V46.6787H96.4564V42.4661H98.149C98.3427 42.4661 98.5196 42.4956 98.6796 42.5545C98.8396 42.6134 98.9785 42.6998 99.0964 42.8134C99.2143 42.9229 99.3048 43.0556 99.368 43.2113C99.4353 43.3671 99.469 43.5419 99.469 43.7356C99.469 43.925 99.4396 44.0934 99.3806 44.2408C99.3217 44.3882 99.2417 44.5124 99.1406 44.6134C99.0396 44.7145 98.9217 44.7945 98.7869 44.8534C98.6564 44.9124 98.5196 44.9482 98.3764 44.9608L99.5132 46.6787H98.8943ZM98.0859 44.544C98.3385 44.544 98.5406 44.4703 98.6922 44.3229C98.848 44.1713 98.9259 43.9756 98.9259 43.7356C98.9259 43.4956 98.848 43.3019 98.6922 43.1545C98.5406 43.0071 98.3385 42.9334 98.0859 42.9334H96.9806V44.544H98.0859ZM101.183 46.6787V42.4661H103.943V42.9334H101.707V44.2913H103.899V44.7587H101.707V46.2113H103.943V46.6787H101.183ZM107.659 46.7545C107.356 46.7545 107.072 46.7019 106.806 46.5966C106.545 46.4913 106.316 46.344 106.118 46.1545C105.924 45.9608 105.771 45.7313 105.657 45.4661C105.547 45.1966 105.493 44.8998 105.493 44.5756C105.493 44.2513 105.547 43.9566 105.657 43.6913C105.771 43.4219 105.924 43.1924 106.118 43.0029C106.316 42.8092 106.545 42.6598 106.806 42.5545C107.072 42.4492 107.356 42.3966 107.659 42.3966C107.844 42.3966 108.015 42.4177 108.171 42.4598C108.331 42.5019 108.476 42.5608 108.606 42.6366C108.741 42.7124 108.861 42.8008 108.966 42.9019C109.076 43.0029 109.173 43.1124 109.257 43.2303L108.815 43.4766C108.693 43.2998 108.528 43.1545 108.322 43.0408C108.12 42.9229 107.899 42.864 107.659 42.864C107.427 42.864 107.213 42.9061 107.015 42.9903C106.817 43.0745 106.644 43.1924 106.497 43.344C106.354 43.4956 106.24 43.6766 106.156 43.8871C106.076 44.0934 106.036 44.3229 106.036 44.5756C106.036 44.824 106.076 45.0534 106.156 45.264C106.24 45.4745 106.354 45.6556 106.497 45.8071C106.644 45.9587 106.817 46.0766 107.015 46.1608C107.213 46.245 107.427 46.2871 107.659 46.2871C107.899 46.2871 108.12 46.2303 108.322 46.1166C108.528 46.0029 108.693 45.8556 108.815 45.6745L109.263 45.9208C109.086 46.1608 108.867 46.3608 108.606 46.5208C108.349 46.6766 108.034 46.7545 107.659 46.7545ZM111.942 46.6787V44.8977L110.281 42.4661H110.894L112.201 44.424L113.508 42.4661H114.121L112.466 44.8977V46.6787H111.942ZM117.297 46.7545C116.994 46.7545 116.71 46.7019 116.445 46.5966C116.184 46.4913 115.954 46.344 115.756 46.1545C115.563 45.9608 115.409 45.7313 115.295 45.4661C115.186 45.1966 115.131 44.8998 115.131 44.5756C115.131 44.2513 115.186 43.9566 115.295 43.6913C115.409 43.4219 115.563 43.1924 115.756 43.0029C115.954 42.8092 116.184 42.6598 116.445 42.5545C116.71 42.4492 116.994 42.3966 117.297 42.3966C117.483 42.3966 117.653 42.4177 117.809 42.4598C117.969 42.5019 118.114 42.5608 118.245 42.6366C118.38 42.7124 118.5 42.8008 118.605 42.9019C118.714 43.0029 118.811 43.1124 118.895 43.2303L118.453 43.4766C118.331 43.2998 118.167 43.1545 117.961 43.0408C117.758 42.9229 117.537 42.864 117.297 42.864C117.066 42.864 116.851 42.9061 116.653 42.9903C116.455 43.0745 116.283 43.1924 116.135 43.344C115.992 43.4956 115.878 43.6766 115.794 43.8871C115.714 44.0934 115.674 44.3229 115.674 44.5756C115.674 44.824 115.714 45.0534 115.794 45.264C115.878 45.4745 115.992 45.6556 116.135 45.8071C116.283 45.9587 116.455 46.0766 116.653 46.1608C116.851 46.245 117.066 46.2871 117.297 46.2871C117.537 46.2871 117.758 46.2303 117.961 46.1166C118.167 46.0029 118.331 45.8556 118.453 45.6745L118.902 45.9208C118.725 46.1608 118.506 46.3608 118.245 46.5208C117.988 46.6766 117.672 46.7545 117.297 46.7545ZM120.454 46.6787V42.4661H120.978V46.2113H122.936V46.6787H120.454ZM124.558 46.6787V42.4661H125.082V46.6787H124.558ZM129.934 46.6787L127.477 43.3187V46.6787H126.953V42.4661H127.49L129.915 45.7566V42.4661H130.439V46.6787H129.934ZM134.305 46.7608C134.006 46.7608 133.724 46.7082 133.458 46.6029C133.197 46.4977 132.968 46.3503 132.77 46.1608C132.576 45.9671 132.423 45.7377 132.309 45.4724C132.195 45.2029 132.138 44.904 132.138 44.5756C132.138 44.2471 132.195 43.9503 132.309 43.685C132.423 43.4156 132.576 43.1861 132.77 42.9966C132.968 42.8071 133.197 42.6598 133.458 42.5545C133.724 42.4492 134.006 42.3966 134.305 42.3966C134.679 42.3966 134.997 42.4703 135.258 42.6177C135.524 42.765 135.751 42.9545 135.94 43.1861L135.524 43.445C135.389 43.2724 135.214 43.1334 134.999 43.0282C134.789 42.9187 134.557 42.864 134.305 42.864C134.073 42.864 133.858 42.9061 133.66 42.9903C133.463 43.0745 133.29 43.1924 133.143 43.344C132.999 43.4956 132.886 43.6766 132.801 43.8871C132.721 44.0934 132.681 44.3229 132.681 44.5756C132.681 44.824 132.721 45.0534 132.801 45.264C132.886 45.4745 132.999 45.6556 133.143 45.8071C133.29 45.9587 133.463 46.0787 133.66 46.1671C133.858 46.2513 134.073 46.2934 134.305 46.2934C134.431 46.2934 134.551 46.2808 134.665 46.2556C134.778 46.2261 134.884 46.1903 134.98 46.1482C135.077 46.1019 135.164 46.0513 135.239 45.9966C135.319 45.9419 135.385 45.8892 135.435 45.8387V44.9798H133.989V44.5124H135.959V46.0345C135.761 46.2534 135.521 46.4303 135.239 46.565C134.961 46.6956 134.65 46.7608 134.305 46.7608Z" fill="#012622"/>
</g>
<defs>
<clipPath id="clip0_927_4731">
<rect width="180" height="61.2632" rx="2.52632" fill="white"/>
</clipPath>
</defs>
</svg>
