<svg width="180" height="60" viewBox="0 0 180 60" fill="none" xmlns="http://www.w3.org/2000/svg">
<path d="M154.857 15.4607V13.4135H154.14V13.158H155.862V13.4135H155.139V15.4607H154.857Z" fill="#012622"/>
<path d="M158.516 15.4607V13.5441L157.744 15.4607H157.629L156.859 13.5441V15.4607H156.577V13.158H156.982L157.686 14.9135L158.396 13.158H158.801V15.4607H158.519H158.516Z" fill="#012622"/>
<path d="M42.5027 13.158H59.4637V18.1995H48.2869V21.4383H59.231V26.1132H48.2869V29.5048H59.6144V34.5464H42.5027V13.158Z" fill="#E98A15"/>
<path d="M75.3759 18.3523H69.0494V13.158H87.5469V18.3523H81.2204V34.5464H75.3759V18.3523Z" fill="#012622"/>
<path d="M113.532 13.158H123.504C126.728 13.158 128.957 14.0135 130.373 15.4801C131.608 16.7023 132.241 18.3523 132.241 20.4606V20.5217C132.241 23.7911 130.523 25.9605 127.902 27.091L132.934 34.5464H126.185L121.937 28.0687H119.377V34.5464H113.532V13.158ZM123.233 23.4244C125.221 23.4244 126.366 22.4466 126.366 20.8883V20.8272C126.366 19.1467 125.161 18.2912 123.203 18.2912H119.377V23.4244H123.233Z" fill="#012622"/>
<path d="M135.193 13.158H152.154V18.1995H140.977V21.4383H152.195V26.1132H140.977V29.5048H152.305V34.5464H135.193V13.158Z" fill="#012622"/>
<path d="M35.2124 27.091C37.8334 25.9605 39.5505 23.7911 39.5505 20.5217V20.4606C39.5505 18.3523 38.9179 16.7023 37.6827 15.4801C36.2668 14.0135 34.0374 13.158 30.8139 13.158H20.8422V18.2356H29.2748V16.6801L34.4209 20.2939L29.2748 23.9077V22.3522H23.0332C21.8226 22.3522 20.8422 23.3466 20.8422 24.5744V34.5436H26.6866V28.066H29.2474L33.4952 34.5436H40.2434L35.2124 27.0882V27.091Z" fill="#E98A15"/>
<path d="M61.8519 26.116V21.4244H69.074V26.116H61.8519Z" fill="#012622"/>
<path d="M97.8418 26.541L89.8282 13.158H96.4861L100.824 20.9495L105.193 13.158H111.73L103.716 26.4493V34.5464H97.8418V26.541Z" fill="#012622"/>
<path d="M46.5095 44.6787L45.4358 43.005H44.5958V44.6787H44.0716V40.4661H45.7642C45.9579 40.4661 46.1348 40.4956 46.2948 40.5545C46.4548 40.6134 46.5937 40.6998 46.7116 40.8134C46.8295 40.9229 46.92 41.0556 46.9832 41.2113C47.0506 41.3671 47.0842 41.5419 47.0842 41.7356C47.0842 41.925 47.0548 42.0934 46.9958 42.2408C46.9369 42.3882 46.8569 42.5124 46.7558 42.6134C46.6548 42.7145 46.5369 42.7945 46.4021 42.8534C46.2716 42.9124 46.1348 42.9482 45.9916 42.9608L47.1285 44.6787H46.5095ZM45.7011 42.544C45.9537 42.544 46.1558 42.4703 46.3074 42.3229C46.4632 42.1713 46.5411 41.9756 46.5411 41.7356C46.5411 41.4956 46.4632 41.3019 46.3074 41.1545C46.1558 41.0071 45.9537 40.9334 45.7011 40.9334H44.5958V42.544H45.7011ZM48.7983 44.6787V40.4661H51.5583V40.9334H49.3225V42.2913H51.5141V42.7587H49.3225V44.2113H51.5583V44.6787H48.7983ZM54.6426 44.7545C54.272 44.7545 53.9541 44.6934 53.6889 44.5713C53.4236 44.445 53.2026 44.2829 53.0257 44.085L53.3352 43.6871C53.4026 43.7629 53.4826 43.8387 53.5752 43.9145C53.6678 43.9861 53.7689 44.0492 53.8784 44.104C53.992 44.1587 54.1141 44.2029 54.2447 44.2366C54.3752 44.2703 54.5141 44.2871 54.6615 44.2871C54.851 44.2871 55.0089 44.264 55.1352 44.2177C55.2615 44.1713 55.3626 44.1145 55.4384 44.0471C55.5141 43.9756 55.5689 43.8977 55.6026 43.8134C55.6362 43.725 55.6531 43.6408 55.6531 43.5608C55.6531 43.4261 55.6173 43.3145 55.5457 43.2261C55.4741 43.1377 55.3794 43.064 55.2615 43.005C55.1478 42.9419 55.0152 42.8913 54.8636 42.8534C54.7162 42.8113 54.5626 42.7692 54.4026 42.7271C54.2468 42.6808 54.0931 42.6303 53.9415 42.5756C53.7941 42.5208 53.6615 42.4513 53.5436 42.3671C53.4299 42.2787 53.3373 42.1713 53.2657 42.045C53.1941 41.9187 53.1584 41.7608 53.1584 41.5713C53.1584 41.3987 53.1941 41.2408 53.2657 41.0977C53.3415 40.9545 53.4426 40.8324 53.5689 40.7313C53.6994 40.6261 53.8531 40.5461 54.0299 40.4913C54.2068 40.4324 54.3984 40.4029 54.6047 40.4029C54.9289 40.4029 55.2152 40.4534 55.4636 40.5545C55.712 40.6556 55.9247 40.8008 56.1015 40.9903L55.7857 41.3756C55.6257 41.1987 55.4405 41.0703 55.2299 40.9903C55.0194 40.9103 54.7984 40.8703 54.5668 40.8703C54.3141 40.8703 54.1057 40.9313 53.9415 41.0534C53.7815 41.1756 53.7015 41.3377 53.7015 41.5398C53.7015 41.6577 53.7373 41.7545 53.8089 41.8303C53.8805 41.9061 53.9731 41.9713 54.0868 42.0261C54.2047 42.0808 54.3373 42.1292 54.4847 42.1713C54.6362 42.2092 54.7899 42.2513 54.9457 42.2977C55.1057 42.3398 55.2594 42.3903 55.4068 42.4492C55.5584 42.5082 55.691 42.584 55.8047 42.6766C55.9226 42.7692 56.0173 42.8829 56.0889 43.0177C56.1605 43.1524 56.1962 43.3187 56.1962 43.5166C56.1962 43.6682 56.1689 43.8198 56.1141 43.9713C56.0594 44.1187 55.9689 44.2513 55.8426 44.3692C55.7205 44.4829 55.5605 44.5756 55.3626 44.6471C55.1647 44.7187 54.9247 44.7545 54.6426 44.7545ZM57.8632 44.6787V40.4661H59.5559C59.7664 40.4661 59.9537 40.4998 60.118 40.5671C60.2822 40.6345 60.419 40.7271 60.5285 40.845C60.6422 40.9587 60.7285 41.0934 60.7874 41.2492C60.8464 41.4008 60.8759 41.5629 60.8759 41.7356C60.8759 41.9082 60.8464 42.0724 60.7874 42.2282C60.7285 42.3798 60.6422 42.5145 60.5285 42.6324C60.4148 42.7461 60.2759 42.8366 60.1116 42.904C59.9474 42.9713 59.7622 43.005 59.5559 43.005H58.3874V44.6787H57.8632ZM59.4927 42.5377C59.7453 42.5377 59.9474 42.464 60.099 42.3166C60.2548 42.1692 60.3327 41.9756 60.3327 41.7356C60.3327 41.4956 60.2548 41.3019 60.099 41.1545C59.9474 41.0071 59.7453 40.9334 59.4927 40.9334H58.3874V42.5377H59.4927ZM64.3743 44.7545C64.0627 44.7545 63.7785 44.6998 63.5216 44.5903C63.2648 44.4808 63.0437 44.3292 62.8585 44.1356C62.6774 43.9377 62.5364 43.7061 62.4353 43.4408C62.3343 43.1756 62.2837 42.8871 62.2837 42.5756C62.2837 42.264 62.3343 41.9756 62.4353 41.7103C62.5364 41.445 62.6774 41.2156 62.8585 41.0219C63.0437 40.824 63.2648 40.6703 63.5216 40.5608C63.7785 40.4513 64.0627 40.3966 64.3743 40.3966C64.6858 40.3966 64.97 40.4513 65.2269 40.5608C65.4837 40.6703 65.7027 40.824 65.8837 41.0219C66.069 41.2156 66.2122 41.445 66.3132 41.7103C66.4143 41.9756 66.4648 42.264 66.4648 42.5756C66.4648 42.8871 66.4143 43.1756 66.3132 43.4408C66.2122 43.7061 66.069 43.9377 65.8837 44.1356C65.7027 44.3292 65.4837 44.4808 65.2269 44.5903C64.97 44.6998 64.6858 44.7545 64.3743 44.7545ZM64.3743 44.2871C64.61 44.2871 64.8227 44.245 65.0122 44.1608C65.2016 44.0724 65.3637 43.9524 65.4985 43.8008C65.6332 43.645 65.7364 43.464 65.8079 43.2577C65.8837 43.0471 65.9216 42.8198 65.9216 42.5756C65.9216 42.3313 65.8837 42.104 65.8079 41.8934C65.7364 41.6829 65.6332 41.5019 65.4985 41.3503C65.3637 41.1987 65.2016 41.0808 65.0122 40.9966C64.8227 40.9082 64.61 40.864 64.3743 40.864C64.1385 40.864 63.9237 40.9082 63.73 40.9966C63.5406 41.0808 63.3785 41.1987 63.2437 41.3503C63.109 41.5019 63.0058 41.6829 62.9343 41.8934C62.8627 42.104 62.8269 42.3313 62.8269 42.5756C62.8269 42.8198 62.8627 43.0471 62.9343 43.2577C63.0058 43.464 63.109 43.645 63.2437 43.8008C63.3785 43.9524 63.5406 44.0724 63.73 44.1608C63.9237 44.245 64.1385 44.2871 64.3743 44.2871ZM71.1489 44.6787L68.692 41.3187V44.6787H68.1678V40.4661H68.7047L71.1299 43.7566V40.4661H71.6541V44.6787H71.1489ZM74.8879 44.7545C74.5174 44.7545 74.1995 44.6934 73.9342 44.5713C73.6689 44.445 73.4479 44.2829 73.271 44.085L73.5805 43.6871C73.6479 43.7629 73.7279 43.8387 73.8205 43.9145C73.9131 43.9861 74.0142 44.0492 74.1237 44.104C74.2374 44.1587 74.3595 44.2029 74.49 44.2366C74.6205 44.2703 74.7595 44.2871 74.9068 44.2871C75.0963 44.2871 75.2542 44.264 75.3805 44.2177C75.5068 44.1713 75.6079 44.1145 75.6837 44.0471C75.7595 43.9756 75.8142 43.8977 75.8479 43.8134C75.8816 43.725 75.8984 43.6408 75.8984 43.5608C75.8984 43.4261 75.8626 43.3145 75.791 43.2261C75.7195 43.1377 75.6247 43.064 75.5068 43.005C75.3931 42.9419 75.2605 42.8913 75.1089 42.8534C74.9616 42.8113 74.8079 42.7692 74.6479 42.7271C74.4921 42.6808 74.3384 42.6303 74.1868 42.5756C74.0395 42.5208 73.9068 42.4513 73.7889 42.3671C73.6752 42.2787 73.5826 42.1713 73.511 42.045C73.4395 41.9187 73.4037 41.7608 73.4037 41.5713C73.4037 41.3987 73.4395 41.2408 73.511 41.0977C73.5868 40.9545 73.6879 40.8324 73.8142 40.7313C73.9447 40.6261 74.0984 40.5461 74.2752 40.4913C74.4521 40.4324 74.6437 40.4029 74.85 40.4029C75.1742 40.4029 75.4605 40.4534 75.7089 40.5545C75.9574 40.6556 76.17 40.8008 76.3468 40.9903L76.031 41.3756C75.871 41.1987 75.6858 41.0703 75.4752 40.9903C75.2647 40.9103 75.0437 40.8703 74.8121 40.8703C74.5595 40.8703 74.351 40.9313 74.1868 41.0534C74.0268 41.1756 73.9468 41.3377 73.9468 41.5398C73.9468 41.6577 73.9826 41.7545 74.0542 41.8303C74.1258 41.9061 74.2184 41.9713 74.3321 42.0261C74.45 42.0808 74.5826 42.1292 74.73 42.1713C74.8816 42.2092 75.0352 42.2513 75.191 42.2977C75.351 42.3398 75.5047 42.3903 75.6521 42.4492C75.8037 42.5082 75.9363 42.584 76.05 42.6766C76.1679 42.7692 76.2626 42.8829 76.3342 43.0177C76.4058 43.1524 76.4416 43.3187 76.4416 43.5166C76.4416 43.6682 76.4142 43.8198 76.3595 43.9713C76.3047 44.1187 76.2142 44.2513 76.0879 44.3692C75.9658 44.4829 75.8058 44.5756 75.6079 44.6471C75.41 44.7187 75.17 44.7545 74.8879 44.7545ZM78.1085 44.6787V40.4661H78.6327V44.6787H78.1085ZM80.5038 44.6787V40.4661H82.3796C82.5607 40.4661 82.7249 40.4934 82.8723 40.5482C83.0196 40.5987 83.1438 40.6724 83.2449 40.7692C83.346 40.8619 83.4238 40.9756 83.4786 41.1103C83.5333 41.2408 83.5607 41.384 83.5607 41.5398C83.5607 41.6745 83.5396 41.7966 83.4975 41.9061C83.4596 42.0156 83.4049 42.1124 83.3333 42.1966C83.266 42.2766 83.1881 42.344 83.0996 42.3987C83.0112 42.4492 82.9186 42.485 82.8217 42.5061C82.9354 42.5229 83.0407 42.5629 83.1375 42.6261C83.2386 42.6892 83.3249 42.7671 83.3965 42.8598C83.4723 42.9524 83.5312 43.0577 83.5733 43.1756C83.6196 43.2934 83.6428 43.4156 83.6428 43.5419C83.6428 43.7103 83.6154 43.864 83.5607 44.0029C83.506 44.1419 83.426 44.2619 83.3207 44.3629C83.2154 44.464 83.087 44.5419 82.9354 44.5966C82.7881 44.6513 82.6175 44.6787 82.4238 44.6787H80.5038ZM82.2912 42.2913C82.5312 42.2913 82.7123 42.2282 82.8344 42.1019C82.9565 41.9713 83.0175 41.8092 83.0175 41.6156C83.0175 41.4261 82.9565 41.2661 82.8344 41.1356C82.7123 41.0008 82.5312 40.9334 82.2912 40.9334H81.0281V42.2913H82.2912ZM82.3165 44.2113C82.5649 44.2113 82.7565 44.1482 82.8912 44.0219C83.0302 43.8913 83.0996 43.7124 83.0996 43.485C83.0996 43.3882 83.0828 43.2956 83.0491 43.2071C83.0154 43.1187 82.9649 43.0429 82.8975 42.9798C82.8344 42.9124 82.7544 42.8598 82.6575 42.8219C82.5607 42.7798 82.447 42.7587 82.3165 42.7587H81.0281V44.2113H82.3165ZM85.3601 44.6787V40.4661H85.8843V44.2113H87.8422V44.6787H85.3601ZM89.4639 44.6787V40.4661H92.2239V40.9334H89.9881V42.2913H92.1797V42.7587H89.9881V44.2113H92.2239V44.6787H89.4639ZM98.8943 44.6787L97.8206 43.005H96.9806V44.6787H96.4564V40.4661H98.149C98.3427 40.4661 98.5196 40.4956 98.6796 40.5545C98.8396 40.6134 98.9785 40.6998 99.0964 40.8134C99.2143 40.9229 99.3048 41.0556 99.368 41.2113C99.4353 41.3671 99.469 41.5419 99.469 41.7356C99.469 41.925 99.4396 42.0934 99.3806 42.2408C99.3217 42.3882 99.2417 42.5124 99.1406 42.6134C99.0396 42.7145 98.9217 42.7945 98.7869 42.8534C98.6564 42.9124 98.5196 42.9482 98.3764 42.9608L99.5132 44.6787H98.8943ZM98.0859 42.544C98.3385 42.544 98.5406 42.4703 98.6922 42.3229C98.848 42.1713 98.9259 41.9756 98.9259 41.7356C98.9259 41.4956 98.848 41.3019 98.6922 41.1545C98.5406 41.0071 98.3385 40.9334 98.0859 40.9334H96.9806V42.544H98.0859ZM101.183 44.6787V40.4661H103.943V40.9334H101.707V42.2913H103.899V42.7587H101.707V44.2113H103.943V44.6787H101.183ZM107.659 44.7545C107.356 44.7545 107.072 44.7019 106.806 44.5966C106.545 44.4913 106.316 44.344 106.118 44.1545C105.924 43.9608 105.771 43.7313 105.657 43.4661C105.547 43.1966 105.493 42.8998 105.493 42.5756C105.493 42.2513 105.547 41.9566 105.657 41.6913C105.771 41.4219 105.924 41.1924 106.118 41.0029C106.316 40.8092 106.545 40.6598 106.806 40.5545C107.072 40.4492 107.356 40.3966 107.659 40.3966C107.844 40.3966 108.015 40.4177 108.171 40.4598C108.331 40.5019 108.476 40.5608 108.606 40.6366C108.741 40.7124 108.861 40.8008 108.966 40.9019C109.076 41.0029 109.173 41.1124 109.257 41.2303L108.815 41.4766C108.693 41.2998 108.528 41.1545 108.322 41.0408C108.12 40.9229 107.899 40.864 107.659 40.864C107.427 40.864 107.213 40.9061 107.015 40.9903C106.817 41.0745 106.644 41.1924 106.497 41.344C106.354 41.4956 106.24 41.6766 106.156 41.8871C106.076 42.0934 106.036 42.3229 106.036 42.5756C106.036 42.824 106.076 43.0534 106.156 43.264C106.24 43.4745 106.354 43.6556 106.497 43.8071C106.644 43.9587 106.817 44.0766 107.015 44.1608C107.213 44.245 107.427 44.2871 107.659 44.2871C107.899 44.2871 108.12 44.2303 108.322 44.1166C108.528 44.0029 108.693 43.8556 108.815 43.6745L109.263 43.9208C109.086 44.1608 108.867 44.3608 108.606 44.5208C108.349 44.6766 108.034 44.7545 107.659 44.7545ZM111.942 44.6787V42.8977L110.281 40.4661H110.894L112.201 42.424L113.508 40.4661H114.121L112.466 42.8977V44.6787H111.942ZM117.297 44.7545C116.994 44.7545 116.71 44.7019 116.445 44.5966C116.184 44.4913 115.954 44.344 115.756 44.1545C115.563 43.9608 115.409 43.7313 115.295 43.4661C115.186 43.1966 115.131 42.8998 115.131 42.5756C115.131 42.2513 115.186 41.9566 115.295 41.6913C115.409 41.4219 115.563 41.1924 115.756 41.0029C115.954 40.8092 116.184 40.6598 116.445 40.5545C116.71 40.4492 116.994 40.3966 117.297 40.3966C117.483 40.3966 117.653 40.4177 117.809 40.4598C117.969 40.5019 118.114 40.5608 118.245 40.6366C118.38 40.7124 118.5 40.8008 118.605 40.9019C118.714 41.0029 118.811 41.1124 118.895 41.2303L118.453 41.4766C118.331 41.2998 118.167 41.1545 117.961 41.0408C117.758 40.9229 117.537 40.864 117.297 40.864C117.066 40.864 116.851 40.9061 116.653 40.9903C116.455 41.0745 116.283 41.1924 116.135 41.344C115.992 41.4956 115.878 41.6766 115.794 41.8871C115.714 42.0934 115.674 42.3229 115.674 42.5756C115.674 42.824 115.714 43.0534 115.794 43.264C115.878 43.4745 115.992 43.6556 116.135 43.8071C116.283 43.9587 116.455 44.0766 116.653 44.1608C116.851 44.245 117.066 44.2871 117.297 44.2871C117.537 44.2871 117.758 44.2303 117.961 44.1166C118.167 44.0029 118.331 43.8556 118.453 43.6745L118.902 43.9208C118.725 44.1608 118.506 44.3608 118.245 44.5208C117.988 44.6766 117.672 44.7545 117.297 44.7545ZM120.454 44.6787V40.4661H120.978V44.2113H122.936V44.6787H120.454ZM124.558 44.6787V40.4661H125.082V44.6787H124.558ZM129.934 44.6787L127.477 41.3187V44.6787H126.953V40.4661H127.49L129.915 43.7566V40.4661H130.439V44.6787H129.934ZM134.305 44.7608C134.006 44.7608 133.724 44.7082 133.458 44.6029C133.197 44.4977 132.968 44.3503 132.77 44.1608C132.576 43.9671 132.423 43.7377 132.309 43.4724C132.195 43.2029 132.138 42.904 132.138 42.5756C132.138 42.2471 132.195 41.9503 132.309 41.685C132.423 41.4156 132.576 41.1861 132.77 40.9966C132.968 40.8071 133.197 40.6598 133.458 40.5545C133.724 40.4492 134.006 40.3966 134.305 40.3966C134.679 40.3966 134.997 40.4703 135.258 40.6177C135.524 40.765 135.751 40.9545 135.94 41.1861L135.524 41.445C135.389 41.2724 135.214 41.1334 134.999 41.0282C134.789 40.9187 134.557 40.864 134.305 40.864C134.073 40.864 133.858 40.9061 133.66 40.9903C133.463 41.0745 133.29 41.1924 133.143 41.344C132.999 41.4956 132.886 41.6766 132.801 41.8871C132.721 42.0934 132.681 42.3229 132.681 42.5756C132.681 42.824 132.721 43.0534 132.801 43.264C132.886 43.4745 132.999 43.6556 133.143 43.8071C133.29 43.9587 133.463 44.0787 133.66 44.1671C133.858 44.2513 134.073 44.2934 134.305 44.2934C134.431 44.2934 134.551 44.2808 134.665 44.2556C134.778 44.2261 134.884 44.1903 134.98 44.1482C135.077 44.1019 135.164 44.0513 135.239 43.9966C135.319 43.9419 135.385 43.8892 135.435 43.8387V42.9798H133.989V42.5124H135.959V44.0345C135.761 44.2534 135.521 44.4303 135.239 44.565C134.961 44.6956 134.65 44.7608 134.305 44.7608Z" fill="#012622"/>
</svg>
